<svg width="161" height="329" viewBox="0 0 161 329" fill="none" xmlns="http://www.w3.org/2000/svg">
<path d="M0.333333 326C0.333333 327.473 1.52724 328.667 3 328.667C4.47276 328.667 5.66667 327.473 5.66667 326C5.66667 324.527 4.47276 323.333 3 323.333C1.52724 323.333 0.333333 324.527 0.333333 326ZM160.354 4.35355C160.549 4.15829 160.549 3.84171 160.354 3.64645L157.172 0.464466C156.976 0.269204 156.66 0.269204 156.464 0.464466C156.269 0.659728 156.269 0.976311 156.464 1.17157L159.293 4L156.464 6.82843C156.269 7.02369 156.269 7.34027 156.464 7.53553C156.66 7.7308 156.976 7.7308 157.172 7.53553L160.354 4.35355ZM3 326.5H18.475V325.5H3V326.5ZM30.975 314V16H29.975V314H30.975ZM42.475 4.5H160V3.5H42.475V4.5ZM30.975 16C30.975 9.64873 36.1237 4.5 42.475 4.5V3.5C35.5714 3.5 29.975 9.09644 29.975 16H30.975ZM18.475 326.5C25.3785 326.5 30.975 320.904 30.975 314H29.975C29.975 320.351 24.8263 325.5 18.475 325.5V326.5Z" fill="#789BB9"/>
</svg>
