<svg width="161" height="370" viewBox="0 0 161 370" fill="none" xmlns="http://www.w3.org/2000/svg">
<path d="M0.333333 367C0.333333 368.473 1.52724 369.667 3 369.667C4.47276 369.667 5.66667 368.473 5.66667 367C5.66667 365.527 4.47276 364.333 3 364.333C1.52724 364.333 0.333333 365.527 0.333333 367ZM160.354 4.35355C160.549 4.15829 160.549 3.84171 160.354 3.64645L157.172 0.464466C156.976 0.269204 156.66 0.269204 156.464 0.464466C156.269 0.659728 156.269 0.976311 156.464 1.17157L159.293 4L156.464 6.82843C156.269 7.02369 156.269 7.34027 156.464 7.53553C156.66 7.7308 156.976 7.7308 157.172 7.53553L160.354 4.35355ZM3 367.5H45.95V366.5H3V367.5ZM58.45 355V16H57.45V355H58.45ZM69.95 4.5H160V3.5H69.95V4.5ZM58.45 16C58.45 9.64873 63.5987 4.5 69.95 4.5V3.5C63.0464 3.5 57.45 9.09645 57.45 16H58.45ZM45.95 367.5C52.8535 367.5 58.45 361.904 58.45 355H57.45C57.45 361.351 52.3013 366.5 45.95 366.5V367.5Z" fill="#789BB9"/>
</svg>
