<svg width="161" height="449" viewBox="0 0 161 449" fill="none" xmlns="http://www.w3.org/2000/svg">
<path d="M0.333333 446C0.333333 447.473 1.52724 448.667 3 448.667C4.47276 448.667 5.66667 447.473 5.66667 446C5.66667 444.527 4.47276 443.333 3 443.333C1.52724 443.333 0.333333 444.527 0.333333 446ZM160.354 4.35355C160.549 4.15829 160.549 3.84171 160.354 3.64645L157.172 0.464466C156.976 0.269204 156.66 0.269204 156.464 0.464466C156.269 0.659728 156.269 0.976311 156.464 1.17157L159.293 4L156.464 6.82843C156.269 7.02369 156.269 7.34027 156.464 7.53553C156.66 7.7308 156.976 7.7308 157.172 7.53553L160.354 4.35355ZM3 446.5H100.9V445.5H3V446.5ZM113.4 434V16H112.4V434H113.4ZM124.9 4.5H160V3.5H124.9V4.5ZM113.4 16C113.4 9.64873 118.549 4.5 124.9 4.5V3.5C117.996 3.5 112.4 9.09644 112.4 16H113.4ZM100.9 446.5C107.804 446.5 113.4 440.904 113.4 434H112.4C112.4 440.351 107.251 445.5 100.9 445.5V446.5Z" fill="#789BB9"/>
</svg>
