<svg width="161" height="413" viewBox="0 0 161 413" fill="none" xmlns="http://www.w3.org/2000/svg">
<path d="M0.333333 410C0.333333 411.473 1.52724 412.667 3 412.667C4.47276 412.667 5.66667 411.473 5.66667 410C5.66667 408.527 4.47276 407.333 3 407.333C1.52724 407.333 0.333333 408.527 0.333333 410ZM160.354 4.35355C160.549 4.15829 160.549 3.84171 160.354 3.64645L157.172 0.464466C156.976 0.269204 156.66 0.269204 156.464 0.464466C156.269 0.659728 156.269 0.976311 156.464 1.17157L159.293 4L156.464 6.82843C156.269 7.02369 156.269 7.34027 156.464 7.53553C156.66 7.7308 156.976 7.7308 157.172 7.53553L160.354 4.35355ZM3 410.5H73.425V409.5H3V410.5ZM85.925 398V16H84.925V398H85.925ZM97.425 4.5H160V3.5H97.425V4.5ZM85.925 16C85.925 9.64872 91.0737 4.5 97.425 4.5V3.5C90.5214 3.5 84.925 9.09643 84.925 16H85.925ZM73.425 410.5C80.3286 410.5 85.925 404.904 85.925 398H84.925C84.925 404.351 79.7763 409.5 73.425 409.5V410.5Z" fill="#789BB9"/>
</svg>
